{"title":"Fruitvale Station 2013 BDRiP AC3-5.1 XviD-AXED","uid":9349660,"size":1492830610,"categoryP":"video","categoryS":"movies","magnet":"?xt=urn:btih:032eebe9949836ee48d9c53666437a0729d177af&amp;dn=Fruitvale+Station+2013+BDRiP+AC3-5.1+XviD-AXED&amp;tr=udp%3A%2F%2Ftracker.openbittorrent.com%3A80&amp;tr=udp%3A%2F%2Fopen.demonii.com%3A1337&amp;tr=udp%3A%2F%2Ftracker.coppersurfer.tk%3A6969&amp;tr=udp%3A%2F%2Fexodus.desync.com%3A6969","seeders":18,"leechers":5,"uploader":"HeroMaster","files":-1,"time":1387100262,"description":"( ___ )| /|( ____ ( __ \n| ( ) |(  / )| ( /| (  )\n| (___) |  (_) / | (__ | | ) |\n| ___ | ) _ ( | __) | | | |\n| ( ) | / ( )  | ( | | ) |\n| ) ( |( /  )| (____/| (__/ )\n|/ ||/ |(_______/(______/\n_ _ _ _ _ _ _ _\n/  /  /  /  /  /  /  / \n( p )( r )( e )( s )( e )( n )( t )( s )\n_/ _/ _/ _/ _/ _/ _/ _/\n\nFruitvale.Station.2013.BDRiP.AC3-5.1.XviD-AXED \n\nIMDB: &lt;a href=&quot;\nhttp://www.imdb.com/title/tt2334649&quot; rel=&quot;nofollow&quot; target=&quot;_NEW&quot;&gt;\nhttp://www.imdb.com/title/tt2334649&lt;/a&gt;\n\nPLOT INFO:\nThe purportedly true story of Oscar Grant III, a 22-year-old Bay Area resident, \nwho crosses paths with friends, enemies, family, and strangers on the last day \nof 2008\n\nMedia Info:\nGeneral\nComplete name: Fruitvale.Station.2013.BDRiP.AC3-5.1.XviD-AXED.avi\nFormat: AVI\nFormat/Info: Audio Video Interleave\nFile size: 1.37 GiB\nDuration: 1h 25mn\nOverall bit rate: 2 304 Kbps\n\nVideo\nID: 0\nFormat: MPEG-4 Visual\nFormat profile: Advanced Simple@L5\nFormat settings, BVOP: 2\nFormat settings, QPel: No\nFormat settings, GMC: No warppoints\nFormat settings, Matrix: Default (H.263)\nMuxing mode: Packed bitstream\nCodec ID: XVID\nCodec ID/Hint: XviD\nDuration: 1h 25mn\nBit rate: 1 849 Kbps\nWidth: 720 pixels\nHeight: 400 pixels\nDisplay aspect ratio: 16:9\nFrame rate: 23.976 fps\nColor space: YUV\nChroma subsampling: 4:2:0\nBit depth: 8 bits\nScan type: Progressive\nCompression mode: Lossy\nBits/(Pixel*Frame): 0.268\nStream size: 1.10 GiB (80%)\nWriting library: XviD 64\n\nAudio\nID: 1\nFormat: AC-3\nFormat/Info: Audio Coding 3\nMode extension: CM (complete main)\nFormat settings, Endianness: Big\nCodec ID: 2000\nDuration: 1h 25mn\nBit rate mode: Constant\nBit rate: 448 Kbps\nChannel(s): 6 channels\nChannel positions: Front: L C R, Side: L R, LFE\nSampling rate: 48.0 KHz\nBit depth: 16 bits\nCompression mode: Lossy\nStream size: 272 MiB (19%)\nAlignment: Aligned on interleaves\nInterleave, duration: 64 ms (1.53 video frames)\nInterleave, preload duration: 192 ms\nTitle: fruitvalestation\n\nSOURCE:\nRetail RA Blu-Ray DISC\n\nNOTES:\nEnjoy a nice xvid encode from the Retail RA Blu-Ray of this powerful movie \nbased on the true story\n\nAXED! Just because\n\n\nPoster:\n\n &lt;a href=&quot;\nhttp://i.imgur.com/H8l5idk.jpg&quot; rel=&quot;nofollow&quot; target=&quot;_NEW&quot;&gt;\nhttp://i.imgur.com/H8l5idk.jpg&lt;/a&gt;\n\n\nScreenshots:\n\n &lt;a href=&quot;\nhttp://i.imgur.com/8taRnVN.jpg&quot; rel=&quot;nofollow&quot; target=&quot;_NEW&quot;&gt;\nhttp://i.imgur.com/8taRnVN.jpg&lt;/a&gt;\n\n\nSEED AND ENJOY!","torrent":{"xt":"urn:btih:032eebe9949836ee48d9c53666437a0729d177af","amp;dn":"Fruitvale+Station+2013+BDRiP+AC3-5.1+XviD-AXED","amp;tr":["udp%3A%2F%2Ftracker.openbittorrent.com%3A80","udp%3A%2F%2Fopen.demonii.com%3A1337","udp%3A%2F%2Ftracker.coppersurfer.tk%3A6969","udp%3A%2F%2Fexodus.desync.com%3A6969"],"infoHash":"032eebe9949836ee48d9c53666437a0729d177af","infoHashBuffer":{"type":"Buffer","data":[3,46,235,233,148,152,54,238,72,217,197,54,102,67,122,7,41,209,119,175]},"announce":[],"urlList":[]}}